<svg width="39" height="39" viewBox="0 0 39 39" fill="none" xmlns="http://www.w3.org/2000/svg">
<path d="M18.8889 11.7357C17.4654 11.7357 15.2619 10.1172 12.9414 10.1757C9.87992 10.2147 7.07192 11.9502 5.49242 14.6997C2.31392 20.2182 4.67342 28.3692 7.77392 32.8542C9.29492 35.0382 11.0889 37.4952 13.4679 37.4172C15.7494 37.3197 16.6074 35.9352 19.3764 35.9352C22.1259 35.9352 22.9059 37.4172 25.3239 37.3587C27.7809 37.3197 29.3409 35.1357 30.8424 32.9322C32.5779 30.3972 33.2994 27.9402 33.3384 27.8037C33.2799 27.7842 28.5609 25.9707 28.5024 20.5107C28.4634 15.9477 32.2269 13.7637 32.4024 13.6662C30.2574 10.5267 26.9619 10.1757 25.8114 10.0977C22.8084 9.86375 20.2929 11.7357 18.8889 11.7357ZM23.9589 7.13375C25.2264 5.61275 26.0649 3.48725 25.8309 1.38125C24.0174 1.45925 21.8334 2.59025 20.5269 4.11125C19.3569 5.45675 18.3429 7.62125 18.6159 9.68825C20.6244 9.84425 22.6914 8.65475 23.9589 7.13375Z" fill="black"/>
</svg>
