<svg width="29" height="31" viewBox="0 0 29 31" fill="none" xmlns="http://www.w3.org/2000/svg">
<path d="M22.6848 5.1377H5.96954C5.01957 5.1377 4.10852 5.54367 3.43679 6.2663C2.76507 6.98894 2.3877 7.96904 2.3877 8.991V21.8354C2.3877 22.8573 2.76507 23.8374 3.43679 24.5601C4.10852 25.2827 5.01957 25.6887 5.96954 25.6887H22.6848C23.6348 25.6887 24.5458 25.2827 25.2175 24.5601C25.8893 23.8374 26.2666 22.8573 26.2666 21.8354V8.991C26.2666 7.96904 25.8893 6.98894 25.2175 6.2663C24.5458 5.54367 23.6348 5.1377 22.6848 5.1377ZM22.6848 7.70657L14.9241 13.448C14.7426 13.5607 14.5367 13.6201 14.3272 13.6201C14.1176 13.6201 13.9117 13.5607 13.7302 13.448L5.96954 7.70657H22.6848Z" fill="#3DA9FC"/>
</svg>
