<svg width="128" height="128" viewBox="0 0 128 128" fill="none" xmlns="http://www.w3.org/2000/svg">
<path d="M128 64C128 64 106.667 106.667 64 106.667C21.3332 106.667 0 64 0 64C0 64 21.3332 21.3333 64 21.3333C106.667 21.3333 128 64 128 64Z" fill="#E4F1FB"/>
<path d="M128 64C128 64 106.667 106.667 64 106.667C64 96 64 35.5557 64 21.3335C106.667 21.3332 128 64 128 64Z" fill="#C9E3F7"/>
<path d="M64 96C81.6731 96 96 81.6731 96 64C96 46.3269 81.6731 32 64 32C46.3269 32 32 46.3269 32 64C32 81.6731 46.3269 96 64 96Z" fill="#78B9EB"/>
<path d="M64 32C81.673 32 96 46.3267 96 64C96 81.6732 81.673 96 64 96" fill="#5A8BB0"/>
<path d="M64 85.3332C75.782 85.3332 85.3332 75.782 85.3332 64C85.3332 52.218 75.782 42.6667 64 42.6667C52.218 42.6667 42.6667 52.218 42.6667 64C42.6667 75.782 52.218 85.3332 64 85.3332Z" fill="#1E2E3B"/>
<path d="M53.3333 85.3335C59.2243 85.3335 64 80.5578 64 74.6667C64 68.7757 59.2243 64 53.3333 64C47.4422 64 42.6665 68.7757 42.6665 74.6667C42.6665 80.5578 47.4422 85.3335 53.3333 85.3335Z" fill="white"/>
<path d="M78.2223 56.8887C82.1496 56.8887 85.3333 53.705 85.3333 49.7777C85.3333 45.8504 82.1496 42.6667 78.2223 42.6667C74.295 42.6667 71.1113 45.8504 71.1113 49.7777C71.1113 53.705 74.295 56.8887 78.2223 56.8887Z" fill="white"/>
</svg>
