<svg width="308" height="171" viewBox="0 0 308 171" fill="none" xmlns="http://www.w3.org/2000/svg">
<path d="M68.1797 35.9316H8.82031C4.30439 35.9316 0.632812 39.6032 0.632812 44.1191V142.369C0.632812 146.885 4.30439 150.557 8.82031 150.557H68.1797C72.6956 150.557 76.3672 146.885 76.3672 142.369V44.1191C76.3672 39.6032 72.6956 35.9316 68.1797 35.9316ZM67.1562 141.346H9.84375V45.1426H67.1562V141.346ZM33.3828 128.297C33.3828 129.654 33.9219 130.956 34.8816 131.915C35.8413 132.875 37.1428 133.414 38.5 133.414C39.8572 133.414 41.1587 132.875 42.1184 131.915C43.0781 130.956 43.6172 129.654 43.6172 128.297C43.6172 126.94 43.0781 125.638 42.1184 124.678C41.1587 123.719 39.8572 123.18 38.5 123.18C37.1428 123.18 35.8413 123.719 34.8816 124.678C33.9219 125.638 33.3828 126.94 33.3828 128.297Z" fill="#072983"/>
<path d="M126.629 97.84H121.277V103.24H119.717V97.84H114.389V96.4H119.717V91H121.277V96.4H126.629V97.84Z" fill="black"/>
<g clip-path="url(#clip0_44_412)">
<path d="M307.55 76.8374C307.097 76.1307 306.359 75.6604 305.53 75.5492L262.78 69.8491C261.238 69.6467 259.787 70.7381 259.576 72.2972C259.366 73.8562 260.465 75.2927 262.025 75.5005L268.101 76.3097V83.5488L253.851 82.0212V67.8368L259.072 60.0048C259.642 59.1498 259.707 58.0554 259.246 57.1406C258.781 56.2228 257.861 55.6243 256.835 55.5759L196.984 52.726C196.024 52.7173 195.092 53.1308 194.531 53.9173L180.281 73.8673C180.223 73.9471 180.212 74.0439 180.164 74.1268L140.152 69.8407C139.343 69.7552 138.545 70.0147 137.944 70.5531C137.345 71.0948 137 71.8643 137 72.6736C137 97.8164 166.406 118.274 202.55 118.274H293.751C295.002 118.274 296.108 117.458 296.475 116.261L307.875 79.2114C308.12 78.4108 308.001 77.5414 307.55 76.8374ZM273.801 84.0735V77.0682L285.2 78.5871V85.3787L273.783 84.156C273.784 84.128 273.801 84.1023 273.801 84.0735ZM225.188 59.7774L251.539 61.0315L248.629 65.392C248.318 65.8593 248.15 66.4124 248.15 66.9738V81.412L222.489 78.6616L225.188 59.7774ZM198.267 58.4949L219.468 59.5039L216.829 77.9689C216.826 77.9973 216.837 78.026 216.834 78.0544L186.607 74.8168L198.267 58.4949ZM291.644 112.574H202.55C177.362 112.574 155.787 102.134 146.969 87.4141L294.346 103.79L291.644 112.574ZM296.053 98.2469L144.202 81.3746C143.598 79.5761 143.113 77.7465 142.891 75.8685L297.832 92.4669L296.053 98.2469ZM299.539 86.9181L290.901 85.9919V79.3483L301.437 80.7534L299.539 86.9181Z" fill="#072983"/>
</g>
<defs>
<clipPath id="clip0_44_412">
<rect width="171" height="171" fill="white" transform="translate(137)"/>
</clipPath>
</defs>
</svg>
