<svg width="182" height="31" viewBox="0 0 182 31" fill="none" xmlns="http://www.w3.org/2000/svg">
<g clip-path="url(#clip0_392_450)">
<path d="M166.027 10.162C163.126 10.162 160.786 12.4653 160.786 15.3208C160.786 18.1763 163.126 20.4796 166.027 20.4796C168.928 20.4796 171.268 18.1763 171.268 15.3208C171.268 12.4653 168.928 10.162 166.027 10.162ZM166.027 18.6747C164.152 18.6747 162.62 17.1706 162.62 15.3208C162.62 13.471 164.148 11.9669 166.027 11.9669C167.906 11.9669 169.434 13.471 169.434 15.3208C169.434 17.1706 167.902 18.6747 166.027 18.6747ZM172.704 9.95102C172.704 10.62 172.157 11.1543 171.482 11.1543C170.802 11.1543 170.26 10.6155 170.26 9.95102C170.26 9.28653 170.807 8.74775 171.482 8.74775C172.157 8.74775 172.704 9.28653 172.704 9.95102ZM176.175 11.1722C176.098 9.5604 175.724 8.13265 174.524 6.95633C173.329 5.78001 171.879 5.41185 170.241 5.33103C168.554 5.23674 163.496 5.23674 161.808 5.33103C160.175 5.40736 158.725 5.77552 157.525 6.95184C156.326 8.12816 155.956 9.55591 155.874 11.1677C155.778 12.829 155.778 17.8081 155.874 19.4694C155.952 21.0812 156.326 22.5089 157.525 23.6853C158.725 24.8616 160.171 25.2297 161.808 25.3106C163.496 25.4048 168.554 25.4048 170.241 25.3106C171.879 25.2342 173.329 24.8661 174.524 23.6853C175.719 22.5089 176.093 21.0812 176.175 19.4694C176.271 17.8081 176.271 12.8335 176.175 11.1722ZM173.995 21.2518C173.639 22.1318 172.951 22.8098 172.052 23.1644C170.707 23.6897 167.514 23.5685 166.027 23.5685C164.54 23.5685 161.343 23.6853 160.002 23.1644C159.108 22.8142 158.419 22.1363 158.059 21.2518C157.525 19.9273 157.648 16.7845 157.648 15.3208C157.648 13.8571 157.53 10.7098 158.059 9.38979C158.415 8.50979 159.103 7.83184 160.002 7.47714C161.347 6.95184 164.54 7.07306 166.027 7.07306C167.514 7.07306 170.711 6.95633 172.052 7.47714C172.946 7.82735 173.635 8.50531 173.995 9.38979C174.529 10.7143 174.406 13.8571 174.406 15.3208C174.406 16.7845 174.529 19.9318 173.995 21.2518Z" fill="black"/>
</g>
<g clip-path="url(#clip1_392_450)">
<path d="M110.638 24.2649V11.3401H106.257V24.2649H110.638ZM108.448 9.57436C109.976 9.57436 110.927 8.58188 110.927 7.34162C110.899 6.07339 109.976 5.10846 108.477 5.10846C106.979 5.10846 105.999 6.07341 105.999 7.34162C105.999 8.58194 106.95 9.57436 108.42 9.57436H108.448H108.448ZM113.063 24.2649H117.444V17.047C117.444 16.6608 117.472 16.2749 117.588 15.9987C117.905 15.2269 118.626 14.4276 119.836 14.4276C121.421 14.4276 122.055 15.6128 122.055 17.3503V24.2648H126.436V16.8538C126.436 12.8838 124.274 11.0366 121.392 11.0366C119.029 11.0366 117.991 12.332 117.415 13.2143H117.444V11.3398H113.063C113.121 12.5526 113.063 24.2646 113.063 24.2646L113.063 24.2649Z" fill="black"/>
</g>
<g clip-path="url(#clip2_392_450)">
<path d="M76.6254 8.56297C75.7646 8.92626 74.8515 9.16473 73.9166 9.27044C74.8905 8.71438 75.6382 7.83385 75.9903 6.7847C75.0645 7.30807 74.0517 7.67681 72.9955 7.875C72.1352 7.00182 70.9095 6.45612 69.553 6.45612C66.9484 6.45612 64.8367 8.46784 64.8367 10.949C64.8367 11.3012 64.8784 11.6441 64.9588 11.973C61.0392 11.7856 57.5641 9.9969 55.2379 7.27856C54.8321 7.94215 54.5995 8.71404 54.5995 9.53735C54.5995 11.0962 55.4322 12.4714 56.6976 13.2771C55.9486 13.2548 55.2162 13.0621 54.5613 12.7151C54.5611 12.7339 54.5611 12.7527 54.5611 12.7716C54.5611 14.9485 56.1867 16.7645 58.3442 17.1773C57.6497 17.3572 56.9212 17.3836 56.2144 17.2543C56.8145 19.0393 58.5563 20.3382 60.6199 20.3746C59.0059 21.5796 56.9723 22.298 54.7627 22.298C54.382 22.298 54.0067 22.2767 53.6377 22.2352C55.7248 23.51 58.2038 24.2538 60.8671 24.2538C69.542 24.2538 74.2857 17.4074 74.2857 11.4701C74.2857 11.2752 74.2812 11.0815 74.272 10.8888C75.1953 10.2529 75.9923 9.46533 76.6254 8.56297Z" fill="black"/>
</g>
<g clip-path="url(#clip3_392_450)">
<path d="M12.4982 24.2649V15.8754H10.2161V12.8548H12.4982V10.2748C12.4982 8.24737 13.8462 6.38556 16.9524 6.38556C18.21 6.38556 19.14 6.50276 19.14 6.50276L19.0667 9.32351C19.0667 9.32351 18.1183 9.31453 17.0833 9.31453C15.9632 9.31453 15.7837 9.81631 15.7837 10.6492V12.8548H19.1557L19.009 15.8754H15.7837V24.2649H12.4982Z" fill="black"/>
</g>
<defs>
<clipPath id="clip0_392_450">
<rect width="20.4335" height="22.9877" fill="white" transform="translate(155.806 3.83142)"/>
</clipPath>
<clipPath id="clip1_392_450">
<rect width="20.4335" height="19.1564" fill="white" transform="translate(105.999 5.10852)"/>
</clipPath>
<clipPath id="clip2_392_450">
<rect width="22.9877" height="17.8793" fill="white" transform="translate(53.6377 6.38568)"/>
</clipPath>
<clipPath id="clip3_392_450">
<rect width="8.93966" height="17.8793" fill="white" transform="translate(10.2161 6.38556)"/>
</clipPath>
</defs>
</svg>
