<svg width="24" height="32" viewBox="0 0 24 32" fill="none" xmlns="http://www.w3.org/2000/svg">
<g clip-path="url(#clip0_1_211)">
<path d="M10.2681 30.4565C7.08334 26.5396 0 17.0464 0 11.714C0 5.24448 5.24448 0 11.714 0C18.1812 0 23.4281 5.24448 23.4281 11.714C23.4281 17.0464 16.2899 26.5396 13.16 30.4565C12.4096 31.39 11.0185 31.39 10.2681 30.4565ZM11.714 15.6187C13.8677 15.6187 15.6187 13.8677 15.6187 11.714C15.6187 9.56037 13.8677 7.80937 11.714 7.80937C9.56037 7.80937 7.80937 9.56037 7.80937 11.714C7.80937 13.8677 9.56037 15.6187 11.714 15.6187Z" fill="#3DA9FC"/>
</g>
<defs>
<clipPath id="clip0_1_211">
<rect width="23.4281" height="31.2375" fill="white"/>
</clipPath>
</defs>
</svg>
