<svg width="47" height="50" viewBox="0 0 47 50" fill="none" xmlns="http://www.w3.org/2000/svg">
<path d="M30.3848 9.38971C24.1128 8.76493 25.0791 7.51677 23.2596 7.36906C21.4401 7.51677 22.4063 8.76493 16.1344 9.38971C9.85657 10.0151 9.13527 8.02145 7.80886 10.7897C7.58928 11.248 5.57162 18.8395 9.91387 28.8855C14.1965 38.7936 23.0181 42.4688 23.2596 42.5679C23.5005 42.469 32.3226 38.7939 36.6053 28.8855C40.9475 18.8395 38.9299 11.248 38.7103 10.7897C37.3839 8.02145 36.6626 10.0151 30.3848 9.38971Z" fill="white"/>
<path d="M32.0865 5.52623C24.2347 4.74528 25.4443 3.18514 23.1666 3.00051C20.8888 3.18514 22.0984 4.74528 14.2466 5.52623C6.38757 6.30789 5.48459 3.81597 3.82409 7.27621C3.54919 7.84905 1.02332 17.3381 6.4593 29.8951C11.8207 42.28 22.8646 46.8737 23.1666 46.9974C23.4682 46.8739 34.5124 42.2801 39.8739 29.8951C45.3098 17.3381 42.784 7.84905 42.5091 7.27621C40.8486 3.81597 39.9456 6.30789 32.0865 5.52623Z" fill="url(#paint0_linear_316_414)"/>
<path d="M23.1603 47C23.1603 47 34.4379 42.4522 39.8739 29.8951C45.3098 17.3381 42.784 7.84905 42.5091 7.27621C40.8486 3.81597 39.9456 6.30789 32.0865 5.52623C24.2275 4.74456 25.4466 3.18225 23.1603 3M23.1729 47C23.1729 47 11.8953 42.4522 6.4593 29.8951C1.02332 17.3381 3.54919 7.84905 3.82408 7.27621C5.48459 3.81597 6.38757 6.30789 14.2466 5.52623C22.1057 4.74456 20.8866 3.18225 23.1729 3" stroke="white" stroke-opacity="0.1" stroke-width="5.55537"/>
<path d="M26.5922 28.6628C27.2011 28.6808 27.7871 28.4769 28.3534 28.1906C28.7307 28.0047 29.1024 27.7984 29.5267 27.7259C29.6823 27.6982 29.8398 27.6822 29.9979 27.6781C30.1248 27.6731 30.2449 27.6188 30.3327 27.5267C30.4205 27.4345 30.4693 27.3118 30.4687 27.1843C30.4682 27.0568 30.4183 26.9345 30.3297 26.8432C30.241 26.7519 30.1205 26.6986 29.9935 26.6947C29.3143 26.678 28.7048 26.901 28.1132 27.2022C27.7865 27.3683 27.4604 27.5356 27.0992 27.6168C26.5677 27.735 26.0123 27.677 25.5165 27.4513C25.1459 27.2908 24.8001 27.0869 24.4247 26.9413C23.4558 26.5664 22.5042 26.6166 21.5655 27.0535C21.2018 27.2227 20.8535 27.4284 20.47 27.553C19.7617 27.7822 19.0855 27.6806 18.4322 27.3478C17.9789 27.1179 17.5269 26.8818 17.0236 26.7734C16.7595 26.7121 16.4886 26.6857 16.2177 26.6947C16.1001 26.7045 15.9899 26.7568 15.9078 26.8419C15.8257 26.9271 15.7772 27.0392 15.7713 27.1576C15.762 27.4185 15.9485 27.6719 16.1924 27.6713C16.7995 27.6713 17.3318 27.8956 17.856 28.1671C18.2883 28.3926 18.7422 28.5705 19.2344 28.6349C19.9415 28.7243 20.6592 28.6023 21.2975 28.2842C21.5359 28.1702 21.7718 28.05 22.0114 27.9384C22.787 27.5784 23.5552 27.6001 24.3222 27.9756C24.66 28.1404 24.9922 28.3177 25.3466 28.4472C25.7449 28.5961 26.1673 28.6692 26.5922 28.6628Z" fill="#010032"/>
<path d="M19.6906 31.1294C20.3353 31.1411 20.922 30.9366 21.4888 30.6541C21.8439 30.4768 22.1934 30.2878 22.5856 30.2011C23.1932 30.0672 23.7669 30.1676 24.3208 30.4366C24.7821 30.6609 25.2335 30.9088 25.738 31.0327C26.5434 31.2259 27.3908 31.1289 28.1322 30.7588C28.3792 30.6398 28.6262 30.5177 28.8732 30.4006C29.2247 30.2353 29.6072 30.147 29.9953 30.1416C30.1253 30.1416 30.25 30.0897 30.342 29.9975C30.4339 29.9052 30.4856 29.78 30.4856 29.6495C30.4856 29.5191 30.4339 29.3939 30.342 29.3016C30.25 29.2094 30.1253 29.1575 29.9953 29.1575C29.316 29.1402 28.7065 29.3632 28.1143 29.6644C27.7882 29.8305 27.4622 29.9984 27.1009 30.079C26.5223 30.2085 25.969 30.1248 25.4336 29.877C25.0143 29.6818 24.6117 29.4488 24.1664 29.3131C23.2741 29.041 22.4083 29.1216 21.5654 29.5157C21.2017 29.6855 20.854 29.8912 20.4705 30.0152C19.7622 30.2444 19.086 30.1434 18.4327 29.8113C17.9794 29.5814 17.5274 29.3453 17.0241 29.2368C16.761 29.1761 16.4912 29.1498 16.2213 29.1588C16.1037 29.1683 15.9936 29.2204 15.9114 29.3053C15.8292 29.3902 15.7804 29.5022 15.7743 29.6204C15.7644 29.8819 15.9509 30.136 16.1942 30.1354C16.8012 30.1354 17.3341 30.3585 17.8578 30.6311C18.3203 30.8722 18.802 31.0606 19.3275 31.1102C19.4461 31.1195 19.5683 31.1226 19.6906 31.1294Z" fill="#010032"/>
<path d="M22.8528 24.1347L20.7296 22.012C20.3097 21.5921 20.0238 21.0571 19.908 20.4747C19.7922 19.8923 19.8517 19.2887 20.0789 18.7401C20.3062 18.1915 20.691 17.7226 21.1848 17.3927C21.6785 17.0628 22.259 16.8868 22.8528 16.8868C23.4466 16.8868 24.027 17.0628 24.5207 17.3927C25.0145 17.7226 25.3993 18.1915 25.6266 18.7401C25.8538 19.2887 25.9133 19.8923 25.7975 20.4747C25.6817 21.0571 25.3958 21.5921 24.976 22.012L22.8528 24.1347ZM20.022 22.7196L22.8528 25.5503L25.6835 22.7196C26.2434 22.1597 26.6246 21.4464 26.779 20.6699C26.9335 19.8933 26.8542 19.0884 26.5512 18.3569C26.2482 17.6255 25.7351 17.0003 25.0768 16.5604C24.4185 16.1205 23.6445 15.8857 22.8528 15.8857C22.061 15.8857 21.287 16.1205 20.6287 16.5604C19.9704 17.0003 19.4573 17.6255 19.1543 18.3569C18.8513 19.0884 18.772 19.8933 18.9265 20.6699C19.0809 21.4464 19.4622 22.1597 20.022 22.7196Z" fill="#010032"/>
<defs>
<linearGradient id="paint0_linear_316_414" x1="23.1666" y1="3" x2="23.1666" y2="47" gradientUnits="userSpaceOnUse">
<stop stop-color="white" stop-opacity="0.08"/>
<stop offset="1" stop-color="white" stop-opacity="0"/>
</linearGradient>
</defs>
</svg>
