<svg width="63" height="63" viewBox="0 0 63 63" fill="none" xmlns="http://www.w3.org/2000/svg">
<circle cx="31.5" cy="31.5" r="31.5" fill="#78B9EB"/>
<path d="M29.752 23.4792L34.6893 30.8992L47.504 31.5408L37.7413 36.7675L40.7233 44.5842L29.752 40.3958L18.7807 44.5842L21.7627 36.7675L12 31.5408L24.8147 30.8992L29.752 23.4792ZM29.752 31.0727L28.0277 33.6642L23.557 33.8873L26.9637 35.7117L25.9207 38.4402L29.752 36.9775L33.581 38.4402L32.5403 35.7131L35.9447 33.8873L31.4763 33.6642L29.752 31.0727ZM20.4187 14V27.125H15.752V14H20.4187ZM43.752 14V27.125H39.0853V14H43.752ZM32.0853 14V21.2917H27.4187V14H32.0853Z" fill="white"/>
</svg>
