<svg width="29" height="31" viewBox="0 0 29 31" fill="none" xmlns="http://www.w3.org/2000/svg">
<path d="M9.27929 3.13296L10.564 2.69111C11.7687 2.27752 13.0557 2.94672 13.5715 4.25427L14.5983 6.85911C15.0449 7.99326 14.7965 9.32779 13.9846 10.1575L11.7221 12.467C11.8618 13.849 12.294 15.2092 13.0175 16.5476C13.7046 17.8425 14.6262 18.9759 15.7278 19.8807L18.4452 18.9045C19.4744 18.5359 20.5967 18.9611 21.2271 19.9591L22.6992 22.2839C23.4335 23.445 23.301 25.0454 22.39 26.0293L21.4146 27.0838C20.4427 28.1332 19.0541 28.5147 17.7706 28.0831C14.738 27.0658 11.9525 24.0461 9.40943 19.024C6.86275 13.9941 5.9637 9.72468 6.7135 6.22074C7.0287 4.74621 8.00416 3.57095 9.27929 3.13296Z" fill="#3DA9FC"/>
</svg>
