<svg width="34" height="34" viewBox="0 0 34 34" fill="none" xmlns="http://www.w3.org/2000/svg">
<path d="M5.11275 2.56983L19.5387 17L5.11417 31.4302C4.85767 31.3223 4.63878 31.1411 4.48501 30.9092C4.33125 30.6773 4.24949 30.4051 4.25 30.1268V3.87317C4.25011 3.59525 4.33196 3.3235 4.48537 3.09175C4.63877 2.86 4.85696 2.6785 5.11275 2.56983ZM20.5403 18.0016L23.8014 21.2627L8.30734 30.2345L20.5403 18.0016ZM25.0722 13.4711L29.0487 15.7746C29.2634 15.8991 29.4416 16.0779 29.5655 16.2929C29.6894 16.508 29.7546 16.7518 29.7546 17C29.7546 17.2482 29.6894 17.492 29.5655 17.7071C29.4416 17.9221 29.2634 18.1009 29.0487 18.2254L25.0708 20.5289L21.5418 17L25.0722 13.4711ZM8.30734 3.7655L23.8028 12.7358L20.5403 15.9984L8.30734 3.7655Z" fill="black"/>
</svg>
