<svg width="63" height="63" viewBox="0 0 63 63" fill="none" xmlns="http://www.w3.org/2000/svg">
<circle cx="31.5" cy="31.5" r="31.5" fill="#78B9EB"/>
<path d="M31 15.979C40.9134 15.979 49 24.2604 49 34.111C49 43.963 40.9134 52 31 52C21.085 52 13 43.8671 13 34.015C12.9997 24.1615 21.0848 15.979 31 15.979Z" fill="white"/>
<path d="M30.9999 20.2316C38.575 20.2316 44.7489 26.557 44.7489 34.0825C44.7489 41.6096 38.5748 47.7446 30.9999 47.7446C23.4264 47.7446 17.251 41.5316 17.251 34.0076C17.2506 26.4821 23.4263 20.2316 30.9999 20.2316Z" fill="#78B9EB"/>
<path d="M25.0073 9.99256C25.0073 6.685 27.6939 4 31.0043 4C34.3164 4 37.0014 6.685 37.0014 9.99394C37.0014 12.79 35.0769 15.118 32.4848 15.7794V17.4999H29.5223V15.7781C26.9333 15.1166 25.0073 12.7885 25.0073 9.99256ZM29.5254 14.2496V11.482H32.4864V14.2494C34.2548 13.6375 35.5313 11.9815 35.5313 10.0135C35.5313 7.528 33.5034 5.5134 31.0028 5.5134C28.5038 5.5134 26.4774 7.52937 26.4774 10.0135C26.4789 11.9801 27.7568 13.6359 29.5254 14.2496Z" fill="white"/>
<path d="M46.9448 16.5655L48.3878 18.0011C49.1828 18.793 49.1828 20.0801 48.3878 20.8721L47.9078 21.352C47.1128 22.1439 45.8198 22.1439 45.0248 21.352L43.5833 19.9151C42.7867 19.1216 42.7867 17.8376 43.5833 17.0441L44.0618 16.5655C44.8568 15.7734 46.1484 15.7734 46.9448 16.5655Z" fill="white"/>
<path d="M15.0367 16.5655L13.6071 18.0011C12.8181 18.793 12.8181 20.0801 13.6071 20.8721L14.0826 21.352C14.8716 22.1439 16.1526 22.1439 16.9416 21.352L18.3696 19.9151C19.1587 19.1216 19.1587 17.8376 18.3696 17.0441L17.8957 16.5655C17.1051 15.7734 15.8273 15.7734 15.0367 16.5655Z" fill="white"/>
<path d="M38.5 32.5H32.5001V25C32.5001 24.1721 31.8295 23.5 31 23.5C30.1706 23.5 29.5 24.1719 29.5 25V34C29.5 34.8295 30.1706 35.5 31 35.5H38.5C39.3295 35.5 40 34.8295 40 34C40 33.1706 39.3293 32.5 38.5 32.5Z" fill="white"/>
</svg>
