<svg width="64" height="64" viewBox="0 0 64 64" fill="none" xmlns="http://www.w3.org/2000/svg">
<g clip-path="url(#clip0_1_221)">
<path d="M32 64C49.6731 64 64 49.6731 64 32C64 14.3269 49.6731 0 32 0C14.3269 0 0 14.3269 0 32C0 49.6731 14.3269 64 32 64Z" fill="#78B9EB"/>
<g opacity="0.2">
<path d="M32 56C32 56 14 49.2 14 34.5V20.9C14 20.9 19.8 14 32 14V56Z" fill="#231F20"/>
</g>
<g opacity="0.2">
<path d="M32 56C32 56 50 49.2 50 34.5V20.9C50 20.9 44.2 14 32 14V56Z" fill="#231F20"/>
</g>
<path d="M32 54C32 54 14 47.2 14 32.5V18.9C14 18.9 19.8 12 32 12V54Z" fill="white"/>
<path d="M32 54C32 54 50 47.2 50 32.5V18.9C50 18.9 44.2 12 32 12V54Z" fill="white"/>
</g>
<defs>
<clipPath id="clip0_1_221">
<rect width="64" height="64" fill="white"/>
</clipPath>
</defs>
</svg>
