<svg width="128" height="128" viewBox="0 0 128 128" fill="none" xmlns="http://www.w3.org/2000/svg">
<g clip-path="url(#clip0_1_174)">
<path d="M64 128C99.3462 128 128 99.3462 128 64C128 28.6538 99.3462 0 64 0C28.6538 0 0 28.6538 0 64C0 99.3462 28.6538 128 64 128Z" fill="#78B9EB"/>
<path d="M64 107.5C88.0244 107.5 107.5 88.0244 107.5 64C107.5 39.9756 88.0244 20.5 64 20.5C39.9756 20.5 20.5 39.9756 20.5 64C20.5 88.0244 39.9756 107.5 64 107.5Z" fill="#FF8E6E"/>
<path d="M63.567 97.265C81.9388 97.265 96.832 82.3717 96.832 64C96.832 45.6282 81.9388 30.735 63.567 30.735C45.1952 30.735 30.302 45.6282 30.302 64C30.302 82.3717 45.1952 97.265 63.567 97.265Z" fill="#F7E4D6"/>
<path d="M63.5669 88.053C76.851 88.053 87.6199 77.2841 87.6199 64C87.6199 50.7159 76.851 39.947 63.5669 39.947C50.2828 39.947 39.5139 50.7159 39.5139 64C39.5139 77.2841 50.2828 88.053 63.5669 88.053Z" fill="#FF8E6E"/>
<path d="M63.9999 78.8411C72.1964 78.8411 78.8409 72.1965 78.8409 64.0001C78.8409 55.8036 72.1964 49.1591 63.9999 49.1591C55.8035 49.1591 49.1589 55.8036 49.1589 64.0001C49.1589 72.1965 55.8035 78.8411 63.9999 78.8411Z" fill="#F7E4D6"/>
<path d="M63.733 72.213C68.2689 72.213 71.946 68.5359 71.946 64C71.946 59.4641 68.2689 55.787 63.733 55.787C59.1971 55.787 55.52 59.4641 55.52 64C55.52 68.5359 59.1971 72.213 63.733 72.213Z" fill="#5C5D61"/>
<path d="M63.8979 64.1149L78.844 57.3719L70.6409 49.1689L63.8979 64.1149Z" fill="#FFCC8F"/>
<path d="M92.1729 35.84L101.4 35.987L105.209 32.179L98.5809 29.432L95.8339 22.804L92.0259 26.613L92.1729 35.84Z" fill="#FFCC8F"/>
<path d="M95.8338 34.5222L93.4905 32.1788L72.3984 53.2709L74.7417 55.6142L95.8338 34.5222Z" fill="#FFCC8F"/>
</g>
<defs>
<clipPath id="clip0_1_174">
<rect width="128" height="128" fill="white"/>
</clipPath>
</defs>
</svg>
